<svg width="132" height="26" viewBox="0 0 132 26" fill="none" xmlns="http://www.w3.org/2000/svg">
<path d="M18 5C13.5846 5 10 8.58464 10 13C10 17.4154 13.5846 21 18 21C22.4074 21 25.9858 17.4282 25.9987 13.0237C25.9995 13.0158 26 13.0079 26 13C26 12.9929 25.9997 12.9858 25.999 12.9787C25.9875 8.57312 22.4083 5 18 5ZM18.224 5.4856C18.5113 5.49358 18.798 5.51788 19.0826 5.5584C19.265 5.63232 19.433 5.72048 19.5328 5.80592C19.8218 6.03952 21.2112 6.74352 20.5264 5.96336C20.5162 5.94256 20.5104 5.92592 20.5034 5.90784C23.4267 6.9384 25.52 9.72224 25.52 13C25.52 16.567 23.041 19.5485 19.7109 20.3226C19.9094 20.2158 20.1381 20.1046 20.2734 20.0275C20.9608 19.7155 21.6013 19.3421 22.1734 18.8237C22.5725 18.1488 23.4566 17.9741 23.7606 17.2131C23.9512 16.5291 24.5677 16.0098 24.5866 15.2803C24.259 14.8056 23.249 15.2251 23.0646 14.5437C22.996 13.8277 22.2318 14.1413 21.896 13.8045C21.3928 13.7462 21.7016 12.9146 21.2872 13.2984C20.777 13.0562 20.9032 13.3768 20.3581 13.3888C20.4258 13.1435 19.9965 12.9136 19.9066 13.1381C19.8534 13.1592 18.9923 13.1266 18.9094 13.6685C18.5853 13.6837 18.1014 13.7515 17.7846 13.5731C17.5022 13.175 18.0818 12.4835 17.2646 12.4494C16.6838 12.5928 16.975 12.216 17.0766 11.8085C17.3296 11.1568 16.3326 11.6032 16.2141 11.94C15.5891 12.2904 15.197 11.3018 15.5429 10.8354C15.6328 9.87824 16.6994 10.4672 17.1862 10.125C17.6968 10.1163 17.9181 10.7266 17.9498 11.0698C18.7574 10.9386 17.5736 9.86336 18.3818 9.62288C19.0258 9.4584 18.6862 8.86848 19.1418 8.51744C19.7222 8.55392 19.1437 8.06288 19.6272 8.01824C19.816 8.16192 20.7122 7.98704 20.3334 7.60784C20.0189 7.89504 19.9219 7.396 19.6787 7.34256C19.9902 7.3472 20.1083 7.48784 20.3374 7.17088C20.261 7.58816 20.7747 7.7584 21.1246 7.656C20.6854 7.07904 20.0587 6.72832 19.4254 6.336C19.2888 5.7568 18.819 5.63168 18.224 5.4856ZM18.1522 5.75712C18.2578 5.75184 18.3762 5.7744 18.4347 5.83184C17.9354 6.08784 18.1738 6.11376 18.2453 6.54624C18.4717 6.4352 18.2485 6.8464 18.276 6.68432C18.429 6.45488 17.9117 6.55024 18.1112 6.916C17.8829 6.64288 17.2915 6.67088 17.0134 6.4C17.0237 5.84592 17.9213 6.35744 18.0675 5.98688C17.8363 5.85312 17.9763 5.76608 18.1523 5.75712H18.1522ZM14.1325 6.54912C13.9949 6.75984 13.7088 7.06624 13.8882 7.0016C13.9045 7.12528 13.6466 7.86 13.3288 8.10816C13.0443 8.4632 12.9096 9.31504 13.2 9.51088C13.223 9.93536 13.2795 10.433 13.3915 10.8138C13.7811 11.6526 13.8181 10.6464 13.576 10.273C13.8432 10.6312 14.1741 11.3182 14.2115 11.8744C14.5973 12.1939 15.0802 12.5773 15.6091 12.5528C16.0333 12.755 16.6416 13.0666 17.0803 13.3554C17.2278 13.789 17.7315 14.0573 18.1446 14.1846C18.3466 13.6888 18.7144 14.2862 18.6568 14.66C18.4709 15.0098 17.8912 15.4014 18.0666 15.8219C17.6957 16.2552 18.364 16.6005 18.5162 17.0597C18.7573 17.4022 18.9101 17.8638 19.415 17.9525C20.0965 18.4354 19.3213 19.297 19.0653 19.8538C18.9986 20.0592 18.6485 20.2965 18.5741 20.496C18.3843 20.5102 18.1933 20.52 18 20.52C13.844 20.52 10.48 17.156 10.48 13C10.48 10.2589 11.9438 7.8632 14.1325 6.54912ZM18.5498 10.6053C18.4906 10.6026 18.4299 10.6277 18.3678 10.6934C18.7771 10.6686 18.1806 11.2386 18.6554 11.2266C18.8448 10.6434 18.7766 11.3621 19.137 11.4494C19.3666 11.6766 19.1925 11.1059 19.177 11.155C19.027 11.1493 18.8053 10.617 18.5498 10.6053ZM17.9531 11.1744C17.8276 11.1702 17.7038 11.2052 17.599 11.2744C17.1552 11.528 17.5542 11.5162 17.711 11.6397C17.9922 11.4018 18.2205 11.6344 18.5587 11.7547C18.5622 12.2253 19.3189 11.6002 19.3174 11.9595C18.9018 12.1181 19.4006 12.2555 19.6157 12.2309C19.7053 12.3869 19.7594 12.1701 19.8594 12.185C20.1914 12.2224 20.4888 12.0046 19.9459 11.8282C19.5037 11.8947 19.4666 11.6266 19.3235 11.5178C18.9427 11.7856 18.4602 11.1898 17.9531 11.1744ZM21.0102 12.0187C20.9966 12.024 20.988 12.047 20.9866 12.0984C21.1678 12.3739 21.4784 12.7376 21.289 13.1374C21.6538 13.0973 21.3776 12.3526 21.2744 12.0806C21.2208 12.305 21.0694 11.9958 21.0104 12.0187H21.0102Z" fill="#585C60"/>
<path d="M43.9937 16.186H39.312L38.3325 19H36.1494L40.7148 6.91406H42.5991L47.1729 19H44.9814L43.9937 16.186ZM39.9014 14.4927H43.4043L41.6528 9.479L39.9014 14.4927ZM49.8291 10.0186L49.8872 11.0562C50.5513 10.2537 51.4229 9.85254 52.502 9.85254C54.3724 9.85254 55.3242 10.9233 55.3574 13.0649V19H53.3403V13.1812C53.3403 12.6112 53.2158 12.1906 52.9668 11.9194C52.7233 11.6427 52.3221 11.5044 51.7632 11.5044C50.9497 11.5044 50.3438 11.8724 49.9453 12.6084V19H47.9282V10.0186H49.8291ZM60.562 16.1113L62.3882 10.0186H64.5381L60.9688 20.3613C60.4209 21.8721 59.4912 22.6274 58.1797 22.6274C57.8864 22.6274 57.5627 22.5776 57.2085 22.478V20.9175L57.5903 20.9424C58.0994 20.9424 58.4813 20.8483 58.7358 20.6602C58.9959 20.4775 59.2007 20.1676 59.3501 19.7305L59.6406 18.9585L56.4863 10.0186H58.6611L60.562 16.1113ZM65.1938 14.4263C65.1938 13.5464 65.3682 12.755 65.7168 12.0522C66.0654 11.3439 66.5552 10.8016 67.186 10.4253C67.8169 10.0435 68.5418 9.85254 69.3608 9.85254C70.5728 9.85254 71.555 10.2427 72.3076 11.0229C73.0658 11.8032 73.4753 12.8381 73.5361 14.1274L73.5444 14.6006C73.5444 15.486 73.3729 16.2773 73.0298 16.9746C72.6922 17.6719 72.2052 18.2114 71.5688 18.5933C70.938 18.9751 70.2075 19.166 69.3774 19.166C68.1102 19.166 67.0947 18.7454 66.3311 17.9043C65.5729 17.0576 65.1938 15.9315 65.1938 14.5259V14.4263ZM67.2109 14.6006C67.2109 15.5247 67.4019 16.2497 67.7837 16.7754C68.1655 17.2956 68.6968 17.5557 69.3774 17.5557C70.0581 17.5557 70.5866 17.29 70.9629 16.7588C71.3447 16.2275 71.5356 15.45 71.5356 14.4263C71.5356 13.5187 71.3392 12.7993 70.9463 12.2681C70.5589 11.7368 70.0304 11.4712 69.3608 11.4712C68.7023 11.4712 68.1794 11.734 67.792 12.2598C67.4046 12.7799 67.2109 13.5602 67.2109 14.6006ZM77.1221 10.0186L77.1802 11.0562C77.8442 10.2537 78.7158 9.85254 79.7949 9.85254C81.6654 9.85254 82.6172 10.9233 82.6504 13.0649V19H80.6333V13.1812C80.6333 12.6112 80.5088 12.1906 80.2598 11.9194C80.0163 11.6427 79.6151 11.5044 79.0562 11.5044C78.2427 11.5044 77.6367 11.8724 77.2383 12.6084V19H75.2212V10.0186H77.1221ZM88.6685 19.166C87.3901 19.166 86.3525 18.7648 85.5557 17.9624C84.7643 17.1545 84.3687 16.0809 84.3687 14.7417V14.4927C84.3687 13.5962 84.5402 12.7965 84.8833 12.0938C85.2319 11.3854 85.7189 10.8348 86.3442 10.4419C86.9696 10.049 87.6668 9.85254 88.436 9.85254C89.659 9.85254 90.6025 10.2427 91.2666 11.0229C91.9362 11.8032 92.271 12.9072 92.271 14.335V15.1484H86.4023C86.4632 15.89 86.7095 16.4766 87.1411 16.9082C87.5783 17.3398 88.1261 17.5557 88.7847 17.5557C89.7088 17.5557 90.4614 17.1821 91.0425 16.4351L92.1299 17.4727C91.7702 18.0094 91.2887 18.4272 90.6855 18.7261C90.0879 19.0194 89.4155 19.166 88.6685 19.166ZM88.4277 11.4712C87.8743 11.4712 87.4261 11.6649 87.083 12.0522C86.7454 12.4396 86.5296 12.9792 86.4355 13.6709H90.2788V13.5215C90.2345 12.8464 90.0547 12.3372 89.7393 11.9941C89.4238 11.6455 88.9867 11.4712 88.4277 11.4712Z" fill="black"/>
<path d="M112.5 19L120.727 10H104.273L112.5 19Z" fill="#585C60"/>
<rect x="0.5" y="0.5" width="131" height="25" rx="12.5" stroke="#585C60"/>
</svg>
