<svg width="23" height="27" viewBox="0 0 23 27" fill="none" xmlns="http://www.w3.org/2000/svg">
<circle cx="6" cy="6.5" r="6" fill="#8C8C8C"/>
<path d="M0 17.5C0 15.8431 1.34315 14.5 3 14.5H9C10.6569 14.5 12 15.8431 12 17.5V26.5H0V17.5Z" fill="#8C8C8C"/>
<circle cx="18.5" cy="10" r="4.5" fill="#8C8C8C"/>
<path d="M14 19.5C14 17.8431 15.3431 16.5 17 16.5H20C21.6569 16.5 23 17.8431 23 19.5V26.5H14V19.5Z" fill="#8C8C8C"/>
<circle cx="18.5" cy="10" r="4.5" fill="#8C8C8C"/>
<path d="M14 19.5C14 17.8431 15.3431 16.5 17 16.5H20C21.6569 16.5 23 17.8431 23 19.5V26.5H14V19.5Z" fill="#8C8C8C"/>
</svg>
