<svg width="24" height="22" viewBox="0 0 24 22" fill="none" xmlns="http://www.w3.org/2000/svg">
<path d="M9.75 0.5C9.15326 0.5 8.58097 0.755288 8.15901 1.2097C7.73705 1.66412 7.5 2.28044 7.5 2.92308V3.73077H2.25C1.65326 3.73077 1.08097 3.98606 0.65901 4.44047C0.237053 4.89489 0 5.51121 0 6.15385L0 8.38954L11.421 11.6688C11.8004 11.7776 12.1996 11.7776 12.579 11.6688L24 8.38954V6.15385C24 5.51121 23.7629 4.89489 23.341 4.44047C22.919 3.98606 22.3467 3.73077 21.75 3.73077H16.5V2.92308C16.5 2.28044 16.2629 1.66412 15.841 1.2097C15.419 0.755288 14.8467 0.5 14.25 0.5H9.75ZM9.75 2.11538H14.25C14.4489 2.11538 14.6397 2.20048 14.7803 2.35195C14.921 2.50342 15 2.70886 15 2.92308V3.73077H9V2.92308C9 2.70886 9.07902 2.50342 9.21967 2.35195C9.36032 2.20048 9.55109 2.11538 9.75 2.11538Z" fill="#8C8C8C"/>
<path d="M0 19.0769C0 19.7195 0.237053 20.3358 0.65901 20.7902C1.08097 21.2447 1.65326 21.5 2.25 21.5H21.75C22.3467 21.5 22.919 21.2447 23.341 20.7902C23.7629 20.3358 24 19.7195 24 19.0769V9.94995L12.1935 13.3374C12.0667 13.3739 11.9333 13.3739 11.8065 13.3374L0 9.94995V19.0769Z" fill="#8C8C8C"/>
</svg>
