<svg width="70" height="18" viewBox="0 0 70 18" fill="none" xmlns="http://www.w3.org/2000/svg">
<g clip-path="url(#clip0_7_76)">
<path d="M8 16C11.866 16 15 12.866 15 9C15 5.13401 11.866 2 8 2C4.13401 2 1 5.13401 1 9C1 12.866 4.13401 16 8 16Z" fill="#378FE9"/>
<path fill-rule="evenodd" clip-rule="evenodd" d="M11.93 8.25H11.38C11.33 8.25 11.23 8.06 10.98 7.79C10.61 7.39 10.2 6.88 9.91002 6.6C9.18946 5.97644 8.6012 5.21476 8.18002 4.36C7.94002 3.85 7.92002 3.62 7.43002 3.62C7.23747 3.64719 7.06202 3.74533 6.93807 3.89518C6.81413 4.04502 6.75063 4.23576 6.76002 4.43C6.76002 4.57 6.83002 5.06 6.86002 5.23C7.0729 6.01232 7.41057 6.7552 7.86002 7.43H4.12002C3.99819 7.42913 3.87752 7.45357 3.76563 7.50177C3.65374 7.54997 3.55308 7.62087 3.47002 7.71C3.38655 7.79705 3.3228 7.90105 3.28311 8.01494C3.24343 8.12882 3.22873 8.24992 3.24002 8.37C3.25543 8.60429 3.36081 8.82356 3.53413 8.98197C3.70744 9.14038 3.93528 9.22566 4.17002 9.22H4.33002C4.12294 9.22763 3.92644 9.31338 3.78002 9.46C3.64238 9.60579 3.56704 9.79952 3.57002 10C3.57175 10.2015 3.64853 10.3951 3.78537 10.543C3.9222 10.691 4.10926 10.7826 4.31002 10.8C4.18782 10.8935 4.09517 11.0202 4.04318 11.165C3.99118 11.3099 3.98206 11.4666 4.01688 11.6165C4.05171 11.7663 4.12902 11.903 4.23954 12.01C4.35006 12.1171 4.48911 12.19 4.64002 12.22C4.54145 12.3853 4.50929 12.5819 4.55002 12.77C4.60275 12.9538 4.71459 13.1152 4.86824 13.2291C5.02189 13.3429 5.20879 13.403 5.40002 13.4H7.69002C7.98999 13.3986 8.28873 13.3617 8.58002 13.29L10 12.89H11.9C12.92 12.85 13.19 8.25 11.93 8.25Z" fill="#D0E8FF"/>
<path d="M7.43003 7.43001H4.11003C3.98364 7.42883 3.85847 7.45489 3.74306 7.50642C3.62764 7.55794 3.52468 7.63373 3.44117 7.72862C3.35767 7.82351 3.29559 7.93527 3.25916 8.0563C3.22272 8.17733 3.21279 8.30479 3.23003 8.43001C3.25022 8.66162 3.35735 8.87701 3.52989 9.03284C3.70242 9.18868 3.92756 9.27342 4.16003 9.27001H4.32003C4.11296 9.27764 3.91645 9.36339 3.77003 9.51001C3.69944 9.58463 3.6445 9.67261 3.60844 9.76879C3.57237 9.86496 3.55591 9.96738 3.56003 10.07C3.56371 10.2719 3.64089 10.4656 3.77711 10.6147C3.91333 10.7638 4.09925 10.8581 4.30003 10.88C4.2044 10.955 4.12688 11.0506 4.07322 11.1597C4.01955 11.2687 3.99112 11.3885 3.99003 11.51C3.98864 11.6981 4.05275 11.8808 4.17135 12.0267C4.28995 12.1727 4.45565 12.2729 4.64003 12.31C4.54082 12.4788 4.50869 12.6787 4.55003 12.87C4.60309 13.0529 4.71533 13.2129 4.86916 13.3252C5.02299 13.4374 5.2097 13.4953 5.40003 13.49H7.69003C7.99 13.4886 8.28874 13.4517 8.58003 13.38L10 12.91H11.9C12.9 12.91 13.17 8.27001 11.9 8.27001C11.7168 8.2801 11.5332 8.2801 11.35 8.27001C11.35 8.27001 11.2 8.08001 10.95 7.81001C10.58 7.41001 10.17 6.90001 9.88003 6.62001C9.16822 5.99159 8.59008 5.22642 8.18003 4.37001C8.09876 4.18227 7.991 4.00716 7.86003 3.85001C7.69348 3.70995 7.47858 3.6409 7.26162 3.65773C7.04465 3.67457 6.84298 3.77593 6.70003 3.94001C6.59639 4.05209 6.51193 4.18047 6.45003 4.32001C6.41091 4.41705 6.38079 4.51747 6.36003 4.62001C6.3332 4.90194 6.3569 5.1864 6.43003 5.46001C6.4897 5.74887 6.58022 6.03048 6.70003 6.30001C6.88949 6.65252 7.11039 6.98721 7.36003 7.30001C7.39088 7.31902 7.41528 7.3469 7.43003 7.38001" stroke="#004182" stroke-linecap="round" stroke-linejoin="round"/>
</g>
<g clip-path="url(#clip1_7_76)">
<path d="M24 16C27.866 16 31 12.866 31 9C31 5.13401 27.866 2 24 2C20.134 2 17 5.13401 17 9C17 12.866 20.134 16 24 16Z" fill="#F5BB5C"/>
<path fill-rule="evenodd" clip-rule="evenodd" d="M24.8201 14.4H23.2201C23.0768 14.4 22.9395 14.3431 22.8382 14.2418C22.7369 14.1406 22.6801 14.0032 22.6801 13.86V12.53H25.3601V13.86C25.3601 14.0032 25.3032 14.1406 25.2019 14.2418C25.1006 14.3431 24.9633 14.4 24.8201 14.4Z" fill="#FFE1B2"/>
<path fill-rule="evenodd" clip-rule="evenodd" d="M22.6901 12.79V12.53C22.6923 12.1901 22.6382 11.8522 22.5301 11.53C22.3898 11.247 22.2115 10.9846 22.0001 10.75C21.6306 10.4482 21.3324 10.0685 21.1267 9.63802C20.921 9.20759 20.8129 8.73704 20.8101 8.25999C20.8101 7.40864 21.1483 6.59217 21.7502 5.99017C22.3522 5.38818 23.1687 5.04999 24.0201 5.04999C24.8714 5.04999 25.6879 5.38818 26.2899 5.99017C26.8919 6.59217 27.2301 7.40864 27.2301 8.25999C27.2202 8.74699 27.1051 9.2261 26.8928 9.6645C26.6805 10.1029 26.376 10.4902 26.0001 10.8C26.0701 10.75 25.9201 10.86 25.8201 11C25.7197 11.1439 25.6422 11.3024 25.5901 11.47C25.49 11.7939 25.4395 12.131 25.4401 12.47V12.73" fill="#FCF0DE"/>
<path d="M23.4601 5.78C22.9943 5.86063 22.5668 6.08845 22.2401 6.43C21.8989 6.76136 21.6625 7.18555 21.5601 7.65" stroke="white" stroke-width="2" stroke-linecap="round" stroke-linejoin="round"/>
<path d="M24.8201 14.4H23.2201C23.0768 14.4 22.9395 14.3431 22.8382 14.2418C22.7369 14.1406 22.6801 14.0032 22.6801 13.86V12.53H25.3601V13.86C25.3601 14.0032 25.3032 14.1406 25.2019 14.2418C25.1006 14.3431 24.9633 14.4 24.8201 14.4V14.4Z" stroke="#5D3B01" stroke-linecap="round" stroke-linejoin="round"/>
<path d="M24 2.5V3.76M22.68 12.79V12.53C22.6806 12.191 22.63 11.8539 22.53 11.53C22.4648 11.3624 22.3774 11.2043 22.27 11.06C22.1631 10.9033 22.039 10.7591 21.9 10.63C21.7666 10.5099 21.6429 10.3795 21.53 10.24C21.0662 9.67648 20.8118 8.96981 20.81 8.24V8.24C20.81 7.38865 21.1482 6.57218 21.7502 5.97019C22.3522 5.3682 23.1686 5.03 24.02 5.03C24.8713 5.03 25.6878 5.3682 26.2898 5.97019C26.8918 6.57218 27.23 7.38865 27.23 8.24C27.2181 8.96972 26.961 9.67421 26.5 10.24C26.3305 10.4495 26.1394 10.6405 25.93 10.81L25.73 11.02C25.6327 11.1643 25.5585 11.3229 25.51 11.49C25.41 11.8139 25.3594 12.151 25.36 12.49V12.75L22.68 12.79ZM20.6 3.64L21.21 4.43L20.6 3.64ZM27.42 3.63L26.81 4.43L27.42 3.63Z" stroke="#5D3B01" stroke-linecap="round" stroke-linejoin="round"/>
</g>
<g clip-path="url(#clip2_7_76)">
<path d="M40 2C41.8565 2 43.637 2.7375 44.9497 4.05025C46.2625 5.36301 47 7.14348 47 9C47 10.8565 46.2625 12.637 44.9497 13.9497C43.637 15.2625 41.8565 16 40 16C38.1435 16 36.363 15.2625 35.0503 13.9497C33.7375 12.637 33 10.8565 33 9C33 7.14348 33.7375 5.36301 35.0503 4.05025C36.363 2.7375 38.1435 2 40 2Z" fill="#D8D8D8"/>
<path d="M40 16C43.866 16 47 12.866 47 9C47 5.13401 43.866 2 40 2C36.134 2 33 5.13401 33 9C33 12.866 36.134 16 40 16Z" fill="#6DAE4F"/>
<path d="M39.9999 2C41.3844 2 42.7378 2.41055 43.8889 3.17972C45.0401 3.94888 45.9373 5.04214 46.4671 6.32122C46.9969 7.6003 47.1355 9.00777 46.8654 10.3656C46.5953 11.7235 45.9287 12.9708 44.9497 13.9497C43.9707 14.9287 42.7234 15.5954 41.3656 15.8655C40.0077 16.1356 38.6002 15.997 37.3212 15.4672C36.0421 14.9373 34.9488 14.0401 34.1797 12.889C33.4105 11.7379 32.9999 10.3845 32.9999 9C32.9999 7.14349 33.7374 5.36301 35.0502 4.05025C36.363 2.7375 38.1434 2 39.9999 2ZM39.9999 1C38.1492 1.00146 36.3562 1.64457 34.9264 2.81976C33.4966 3.99496 32.5186 5.62953 32.1588 7.445C31.7991 9.26046 32.0799 11.1445 32.9535 12.7761C33.8271 14.4077 35.2394 15.686 36.9497 16.3931C38.6601 17.1002 40.5627 17.1924 42.3334 16.654C44.1042 16.1156 45.6334 14.98 46.6607 13.4405C47.688 11.901 48.1497 10.053 47.9673 8.21121C47.7848 6.36946 46.9694 4.64796 45.6599 3.34C44.9164 2.59733 44.0339 2.00842 43.0627 1.60691C42.0916 1.20541 41.0508 0.999176 39.9999 1Z" fill="white"/>
<path d="M44.13 10.22C44.1097 9.43446 43.9887 8.65477 43.77 7.90001C43.1606 7.4008 42.7005 6.74344 42.44 6.00001C42.28 5.47001 42.17 5.28001 41.7 5.27001C41.5089 5.29266 41.3341 5.38887 41.2128 5.53822C41.0914 5.68757 41.0331 5.87832 41.05 6.07001C41.05 6.31001 41.05 6.56001 41.11 6.79001C41.247 7.44568 41.4411 8.08812 41.69 8.71001L37.19 5.33001C37.1149 5.25689 37.0254 5.20031 36.9271 5.16392C36.8288 5.12753 36.724 5.11214 36.6195 5.11874C36.5149 5.12533 36.4128 5.15377 36.3199 5.20221C36.227 5.25066 36.1453 5.31804 36.08 5.40001C36.0317 5.48331 36.0004 5.57534 35.9879 5.6708C35.9754 5.76625 35.9818 5.86324 36.0069 5.95619C36.032 6.04914 36.0752 6.1362 36.1341 6.21237C36.193 6.28854 36.2664 6.35231 36.35 6.40001L38.6 8.10001L39.19 8.66001L35.62 6.00001C35.5234 5.90434 35.4014 5.8384 35.2685 5.81004C35.1355 5.78168 34.9972 5.79208 34.87 5.84001C34.7418 5.88507 34.6297 5.96701 34.5479 6.07553C34.466 6.18405 34.4181 6.31433 34.41 6.45001C34.4003 6.58433 34.429 6.71865 34.4927 6.83728C34.5565 6.95591 34.6526 7.05397 34.77 7.12001L37 8.77001L38.35 9.77001L35.45 7.58001C35.3735 7.50912 35.2838 7.45407 35.186 7.41803C35.0882 7.38199 34.9842 7.36567 34.88 7.37001C34.6701 7.3886 34.4761 7.48921 34.34 7.65001C34.03 8.05001 34.28 8.46001 34.6 8.71001L36.85 10.4L38 11.25L35.73 9.55001C35.6607 9.47454 35.5764 9.41429 35.4826 9.37308C35.3888 9.33186 35.2875 9.31058 35.185 9.31058C35.0825 9.31058 34.9812 9.33186 34.8874 9.37308C34.7935 9.41429 34.7093 9.47454 34.64 9.55001C34.5801 9.63605 34.5387 9.73355 34.5183 9.83637C34.498 9.9392 34.4991 10.0451 34.5216 10.1475C34.5442 10.2499 34.5876 10.3465 34.6493 10.4312C34.711 10.516 34.7895 10.5871 34.88 10.64L38.98 13.64C39.58 14.09 41.05 14.48 41.7 13.91" stroke="#057642" stroke-width="1.5" stroke-linecap="round" stroke-linejoin="round"/>
<path fill-rule="evenodd" clip-rule="evenodd" d="M44.6099 10.9L44.1899 10.53C44.1392 9.7934 43.9668 9.07029 43.6799 8.38999C43.0934 7.70012 42.6787 6.88107 42.4699 5.99999C42.3099 5.46999 42.1999 5.27999 41.7299 5.26999C41.5388 5.29265 41.3641 5.38885 41.2427 5.53821C41.1214 5.68756 41.063 5.8783 41.0799 6.06999C41.0799 6.30999 41.0799 6.55999 41.1399 6.78999C41.2562 7.4214 41.4406 8.03834 41.6899 8.62999L41.4999 8.52999L37.1899 5.21999C37.1148 5.14687 37.0253 5.0903 36.927 5.05391C36.8288 5.01752 36.724 5.00212 36.6194 5.00872C36.5148 5.01531 36.4128 5.04375 36.3198 5.0922C36.2269 5.14064 36.1452 5.20802 36.0799 5.28999C36.0225 5.37569 35.9839 5.47258 35.9667 5.57427C35.9494 5.67597 35.9539 5.78016 35.9799 5.87999C36.0037 5.98053 36.0491 6.07468 36.113 6.15586C36.1769 6.23703 36.2577 6.30329 36.3499 6.34999L38.5499 7.99999L39.1899 8.50999L35.6199 5.83999C35.5452 5.76665 35.4557 5.71001 35.3574 5.67381C35.2592 5.63761 35.1544 5.62267 35.0499 5.62999C34.9463 5.6363 34.8451 5.66346 34.7523 5.70986C34.6595 5.75626 34.5771 5.82093 34.5099 5.89999C34.4547 5.98668 34.4174 6.08355 34.4002 6.18488C34.3831 6.28621 34.3864 6.38995 34.4099 6.48999C34.4291 6.59609 34.4713 6.69672 34.5335 6.78481C34.5957 6.87291 34.6764 6.94635 34.7699 6.99999L36.9999 8.65999L38.3499 9.65999L35.4499 7.47999C35.3757 7.40537 35.2865 7.34722 35.1883 7.30932C35.0901 7.27141 34.985 7.25461 34.8799 7.25999C34.7755 7.26696 34.6736 7.29543 34.5807 7.34361C34.4877 7.39179 34.4058 7.45865 34.3399 7.53999C34.2814 7.62487 34.2415 7.72119 34.2228 7.82261C34.2042 7.92403 34.2073 8.02824 34.2318 8.12839C34.2564 8.22853 34.3019 8.32234 34.3653 8.40362C34.4288 8.48491 34.5087 8.55184 34.5999 8.59999L36.8499 10.29L37.9999 11.14L35.7299 9.44999C35.6625 9.37274 35.5796 9.31055 35.4865 9.26747C35.3935 9.2244 35.2924 9.2014 35.1899 9.19999C35.0861 9.20243 34.9839 9.22583 34.8894 9.2688C34.7948 9.31176 34.71 9.37339 34.6399 9.44999C34.5787 9.53471 34.5361 9.63144 34.515 9.73381C34.4939 9.83618 34.4947 9.94186 34.5173 10.0439C34.54 10.1459 34.5841 10.242 34.6465 10.3258C34.709 10.4096 34.7886 10.4792 34.8799 10.53L38.9999 13.64C39.2929 13.8634 39.6289 14.024 39.9867 14.1118C40.3446 14.1995 40.7168 14.2125 41.0799 14.15C41.2816 14.3065 41.5296 14.3914 41.7849 14.3914C42.0402 14.3914 42.2882 14.3065 42.4899 14.15C43.0899 13.69 42.8999 13.64 43.3399 13.02C43.8421 12.3637 44.2682 11.6524 44.6099 10.9Z" fill="#DCF0CB"/>
<path d="M44.13 10.22C44.1097 9.43446 43.9887 8.65477 43.77 7.90001C43.1606 7.4008 42.7005 6.74344 42.44 6.00001C42.28 5.47001 42.17 5.28001 41.7 5.27001C41.5089 5.29266 41.3341 5.38887 41.2128 5.53822C41.0914 5.68757 41.0331 5.87832 41.05 6.07001C41.05 6.31001 41.05 6.56001 41.11 6.79001C41.247 7.44568 41.4411 8.08812 41.69 8.71001L37.19 5.33001C37.1149 5.25689 37.0254 5.20031 36.9271 5.16392C36.8288 5.12753 36.724 5.11214 36.6195 5.11874C36.5149 5.12533 36.4128 5.15377 36.3199 5.20221C36.227 5.25066 36.1453 5.31804 36.08 5.40001C36.0317 5.48331 36.0004 5.57534 35.9879 5.6708C35.9754 5.76625 35.9818 5.86324 36.0069 5.95619C36.032 6.04914 36.0752 6.1362 36.1341 6.21237C36.193 6.28854 36.2664 6.35231 36.35 6.40001L38.6 8.10001L39.19 8.66001L35.62 6.00001C35.5234 5.90434 35.4014 5.8384 35.2685 5.81004C35.1355 5.78168 34.9972 5.79208 34.87 5.84001C34.7418 5.88507 34.6297 5.96701 34.5479 6.07553C34.466 6.18405 34.4181 6.31433 34.41 6.45001C34.4003 6.58433 34.429 6.71865 34.4927 6.83728C34.5565 6.95591 34.6526 7.05397 34.77 7.12001L37 8.77001L38.35 9.77001L35.45 7.58001C35.3735 7.50912 35.2838 7.45407 35.186 7.41803C35.0882 7.38199 34.9842 7.36567 34.88 7.37001C34.6701 7.3886 34.4761 7.48921 34.34 7.65001C34.03 8.05001 34.28 8.46001 34.6 8.71001L36.85 10.4L38 11.25L35.73 9.55001C35.6607 9.47454 35.5764 9.41429 35.4826 9.37308C35.3888 9.33186 35.2875 9.31058 35.185 9.31058C35.0825 9.31058 34.9812 9.33186 34.8874 9.37308C34.7935 9.41429 34.7093 9.47454 34.64 9.55001C34.5801 9.63605 34.5387 9.73355 34.5183 9.83637C34.498 9.9392 34.4991 10.0451 34.5216 10.1475C34.5442 10.2499 34.5876 10.3465 34.6493 10.4312C34.711 10.516 34.7895 10.5871 34.88 10.64L38.98 13.64C39.7976 14.1309 40.7504 14.3481 41.7 14.26" stroke="#057642" stroke-width="0.5" stroke-linecap="round" stroke-linejoin="round"/>
<path d="M46.7699 12.39C46.5683 12.173 46.412 11.9181 46.3099 11.64C46.2962 11.4208 46.2628 11.2032 46.2099 10.99C46.1787 10.6063 46.0552 10.2358 45.8499 9.91001C45.2685 9.22056 44.8544 8.40601 44.6399 7.53001C44.4799 7.00001 44.3699 6.81001 43.8999 6.80001C43.7055 6.81734 43.5258 6.91079 43.3999 7.06001C43.3406 7.1357 43.2968 7.22237 43.2711 7.31504C43.2453 7.40771 43.2381 7.50456 43.2499 7.60001C43.25 7.84126 43.2701 8.08208 43.3099 8.32001C43.4899 9.24001 43.6799 10 43.6999 10.05L39.4099 6.84001C39.3353 6.7659 39.2461 6.70808 39.148 6.67021C39.0499 6.63234 38.945 6.61525 38.8399 6.62001C38.7341 6.62564 38.6309 6.65455 38.5375 6.70468C38.4442 6.75481 38.3631 6.82492 38.2999 6.91001C38.2513 6.99272 38.2194 7.08422 38.2061 7.17927C38.1928 7.27431 38.1984 7.37104 38.2226 7.46392C38.2467 7.55681 38.289 7.64401 38.3469 7.72056C38.4047 7.7971 38.4772 7.86148 38.5599 7.91001L40.8099 9.61001L41.4899 10.17L37.8899 7.46001C37.8153 7.3859 37.7261 7.32808 37.628 7.29021C37.5299 7.25234 37.425 7.23525 37.3199 7.24001C37.1616 7.24165 37.0083 7.29618 36.8845 7.39495C36.7607 7.49371 36.6735 7.63102 36.6367 7.78506C36.5999 7.9391 36.6157 8.10101 36.6815 8.24505C36.7473 8.38909 36.8594 8.507 36.9999 8.58001L39.2499 10.28L40.5999 11.28L37.7099 9.09001C37.6359 9.01619 37.5468 8.95914 37.4488 8.92274C37.3507 8.88633 37.246 8.87142 37.1417 8.87901C37.0374 8.88659 36.9359 8.9165 36.8442 8.96671C36.7524 9.01691 36.6726 9.08625 36.6099 9.17001C36.2999 9.57001 36.5399 9.98001 36.8699 10.23L39.1199 11.91L40.2399 12.76L37.9999 11.06C37.8657 10.9305 37.6865 10.8581 37.4999 10.8581C37.3134 10.8581 37.1342 10.9305 36.9999 11.06C36.9353 11.1404 36.8893 11.2341 36.8651 11.3343C36.8409 11.4346 36.8391 11.539 36.8599 11.64C36.8795 11.7408 36.9199 11.8364 36.9784 11.9208C37.0369 12.0051 37.1124 12.0764 37.1999 12.13L41.1999 15.13C41.5336 15.3805 41.9201 15.5516 42.3299 15.63L42.9099 15.72C43.2155 15.7618 43.5105 15.8601 43.7799 16.01C43.973 16.0848 44.1869 16.0848 44.3799 16.01C45.0819 15.7594 45.6965 15.3115 46.1499 14.72C46.5682 14.1332 46.811 13.4396 46.8499 12.72C46.8797 12.5816 46.8797 12.4384 46.8499 12.3L46.7699 12.39Z" stroke="#057642" stroke-width="1.5" stroke-linecap="round" stroke-linejoin="round"/>
<path fill-rule="evenodd" clip-rule="evenodd" d="M46.8099 12.34L46.3599 12C46.3114 11.2631 46.139 10.5396 45.8499 9.86C45.2685 9.17054 44.8544 8.356 44.6399 7.48C44.4799 6.95 44.3699 6.76 43.8999 6.75C43.7055 6.76732 43.5258 6.86078 43.3999 7.01C43.3406 7.08569 43.2968 7.17236 43.271 7.26503C43.2453 7.3577 43.2381 7.45455 43.2499 7.55C43.25 7.79124 43.2701 8.03207 43.3099 8.27C43.4899 9.2 43.6799 9.96 43.6999 10L39.4099 6.79C39.3348 6.71688 39.2453 6.6603 39.147 6.62391C39.0488 6.58752 38.944 6.57213 38.8394 6.57873C38.7348 6.58532 38.6328 6.61376 38.5398 6.6622C38.4469 6.71065 38.3652 6.77803 38.2999 6.86C37.9899 7.27 38.2399 7.67 38.5599 7.92L40.8099 9.61L41.4899 10.17L37.8899 7.41C37.8148 7.33688 37.7253 7.2803 37.627 7.24391C37.5288 7.20752 37.424 7.19213 37.3194 7.19873C37.2148 7.20532 37.1128 7.23376 37.0198 7.2822C36.9269 7.33065 36.8452 7.39803 36.7799 7.48C36.4699 7.88 36.7199 8.29 37.0399 8.54L39.2899 10.23L40.6399 11.23L37.7099 9C37.6359 8.92557 37.5466 8.86822 37.4481 8.83194C37.3497 8.79567 37.2445 8.78135 37.1399 8.79C37.0363 8.79451 36.9351 8.82198 36.8434 8.8704C36.7518 8.91882 36.672 8.987 36.6099 9.07C36.5485 9.15385 36.506 9.25001 36.4853 9.35185C36.4646 9.4537 36.4661 9.55882 36.4899 9.66C36.5166 9.76067 36.5642 9.85457 36.6297 9.93556C36.6952 10.0166 36.7771 10.0828 36.8699 10.13L39.1199 11.82L40.2399 12.67L37.9999 11C37.9347 10.9335 37.8569 10.8806 37.7711 10.8446C37.6852 10.8085 37.593 10.7899 37.4999 10.7899C37.4068 10.7899 37.3146 10.8085 37.2287 10.8446C37.1429 10.8806 37.0651 10.9335 36.9999 11C36.9295 11.0814 36.8785 11.1776 36.8508 11.2816C36.8231 11.3855 36.8194 11.4944 36.8399 11.6C36.8578 11.7066 36.8994 11.8078 36.9618 11.896C37.0241 11.9843 37.1055 12.0575 37.1999 12.11L41.1999 15.11C41.8069 15.4705 42.4944 15.6733 43.1999 15.7C43.4571 15.8545 43.7243 15.9914 43.9999 16.11C44.8018 15.9578 45.5164 15.5076 45.9999 14.85C46.521 14.0905 46.8189 13.2002 46.8599 12.28L46.8099 12.34Z" fill="#DDF6D1"/>
<path d="M46.7699 12.39C46.5683 12.173 46.412 11.9181 46.3099 11.64C46.2962 11.4208 46.2628 11.2032 46.2099 10.99C46.1787 10.6063 46.0552 10.2358 45.8499 9.91001C45.2685 9.22056 44.8544 8.40601 44.6399 7.53001C44.4799 7.00001 44.3699 6.81001 43.8999 6.80001C43.7055 6.81734 43.5258 6.91079 43.3999 7.06001C43.3406 7.1357 43.2968 7.22237 43.2711 7.31504C43.2453 7.40771 43.2381 7.50456 43.2499 7.60001C43.25 7.84126 43.2701 8.08208 43.3099 8.32001C43.4899 9.24001 43.6799 10 43.6999 10.05L39.4099 6.84001C39.3353 6.7659 39.2461 6.70808 39.148 6.67021C39.0499 6.63234 38.945 6.61525 38.8399 6.62001C38.7341 6.62564 38.6309 6.65455 38.5375 6.70468C38.4442 6.75481 38.3631 6.82492 38.2999 6.91001C38.2513 6.99272 38.2194 7.08422 38.2061 7.17927C38.1928 7.27431 38.1984 7.37104 38.2226 7.46392C38.2467 7.55681 38.289 7.64401 38.3469 7.72056C38.4047 7.7971 38.4772 7.86148 38.5599 7.91001L40.8099 9.61001L41.4899 10.17L37.8899 7.46001C37.8153 7.3859 37.7261 7.32808 37.628 7.29021C37.5299 7.25234 37.425 7.23525 37.3199 7.24001C37.1616 7.24165 37.0083 7.29618 36.8845 7.39495C36.7607 7.49371 36.6735 7.63102 36.6367 7.78506C36.5999 7.9391 36.6157 8.10101 36.6815 8.24505C36.7473 8.38909 36.8594 8.507 36.9999 8.58001L39.2499 10.28L40.5999 11.28L37.7099 9.09001C37.6359 9.01619 37.5468 8.95914 37.4488 8.92274C37.3507 8.88633 37.246 8.87142 37.1417 8.87901C37.0374 8.88659 36.9359 8.9165 36.8442 8.96671C36.7524 9.01691 36.6726 9.08625 36.6099 9.17001C36.2999 9.57001 36.5399 9.98001 36.8699 10.23L39.1199 11.91L40.2399 12.76L37.9999 11.06C37.8657 10.9305 37.6865 10.8581 37.4999 10.8581C37.3134 10.8581 37.1342 10.9305 36.9999 11.06C36.9353 11.1404 36.8893 11.2341 36.8651 11.3343C36.8409 11.4346 36.8391 11.539 36.8599 11.64C36.8795 11.7408 36.9199 11.8364 36.9784 11.9208C37.0369 12.0051 37.1124 12.0764 37.1999 12.13L41.1999 15.13C41.5336 15.3805 41.9201 15.5516 42.3299 15.63L42.9099 15.72C43.2155 15.7618 43.5105 15.8601 43.7799 16.01C43.973 16.0848 44.1869 16.0848 44.3799 16.01C45.0819 15.7594 45.6965 15.3115 46.1499 14.72C46.5682 14.1332 46.811 13.4396 46.8499 12.72C46.8797 12.5816 46.8797 12.4384 46.8499 12.3L46.7699 12.39Z" stroke="#057642" stroke-width="0.5" stroke-linecap="round" stroke-linejoin="round"/>
<path d="M40.83 3.82001L40.1 4.74001" stroke="#057642" stroke-linecap="round" stroke-linejoin="round"/>
<path d="M37.49 2.62L37.56 3.82" stroke="#057642" stroke-linecap="round" stroke-linejoin="round"/>
<path d="M39.5399 2.63L38.8899 4.19" stroke="#057642" stroke-linecap="round" stroke-linejoin="round"/>
</g>
<path d="M61.2253 4.09766L56.8088 14H55.3879L59.7897 4.44922H54.0183V3.33594H61.2253V4.09766ZM69.3481 4.09766L64.9316 14H63.5107L67.9126 4.44922H62.1411V3.33594H69.3481V4.09766Z" fill="#585C60"/>
<defs>
<clipPath id="clip0_7_76">
<rect width="16" height="16" fill="white" transform="translate(0 1)"/>
</clipPath>
<clipPath id="clip1_7_76">
<rect width="16" height="16" fill="white" transform="translate(16 1)"/>
</clipPath>
<clipPath id="clip2_7_76">
<rect width="16" height="16" fill="white" transform="translate(32 1)"/>
</clipPath>
</defs>
</svg>
