<svg width="20" height="20" viewBox="0 0 20 20" fill="none" xmlns="http://www.w3.org/2000/svg">
<path d="M18.2709 9.49502V16.652H15.2409L15.0879 16.67C12.2749 17.326 10.4109 17.799 9.48193 18.092C8.24793 18.481 7.78793 18.576 6.95093 18.632C6.32493 18.675 5.61393 18.434 5.28993 18.104C5.11093 17.922 4.97693 17.548 4.92393 16.968C4.91295 16.8464 4.86947 16.73 4.79804 16.6309C4.72662 16.5319 4.62987 16.4538 4.51793 16.405C4.26893 16.297 4.06193 16.121 3.88893 15.865C3.72893 15.631 3.62493 15.195 3.60593 14.564C3.60259 14.448 3.5697 14.3348 3.51038 14.235C3.45106 14.1353 3.36726 14.0523 3.26693 13.994C2.68493 13.657 2.39693 13.277 2.33693 12.831C2.27093 12.338 2.43093 11.783 2.84993 11.151C2.94824 11.0028 2.98485 10.8221 2.95199 10.6473C2.91912 10.4725 2.81936 10.3174 2.67393 10.215C2.27293 9.93302 2.05293 9.54102 1.99793 8.98502C1.90993 8.09902 2.47493 7.44402 3.75393 7.31302C4.89306 7.20035 6.04319 7.29626 7.14793 7.59602C7.27325 7.62877 7.40531 7.62504 7.52859 7.58529C7.65186 7.54553 7.76122 7.47139 7.84379 7.37159C7.92635 7.27179 7.9787 7.15049 7.99467 7.02195C8.01064 6.89341 7.98957 6.76299 7.93393 6.64602C7.43393 5.58802 7.15593 4.71502 7.09093 4.03902C7.00593 3.14202 7.21293 2.49202 7.69693 1.95602C8.06393 1.55002 8.65093 1.31802 8.87093 1.36602C9.16093 1.42802 9.34993 1.59602 9.59593 2.18402C9.74093 2.53202 9.81093 2.82802 9.93093 3.51902C10.0459 4.17502 10.1089 4.47102 10.2399 4.85902C10.6349 6.03502 11.6039 7.25402 12.9049 8.09502C13.8167 8.68373 14.8049 9.14469 15.8419 9.46502C15.9067 9.48499 15.9741 9.4951 16.0419 9.49502H18.2709ZM18.3129 18.015C18.6359 18.024 18.9259 17.952 19.1689 17.782C19.4789 17.565 19.6249 17.223 19.6279 16.829L19.6249 9.50602C19.6589 9.11602 19.5439 8.75802 19.2719 8.49202C19.0169 8.24202 18.6839 8.12402 18.3319 8.13202H16.1469C15.2631 7.85039 14.4204 7.45294 13.6409 6.95002C12.5929 6.27202 11.8209 5.30002 11.5259 4.42402C11.4249 4.12202 11.3709 3.87202 11.2689 3.28402C11.1309 2.49502 11.0449 2.12802 10.8469 1.65602C10.4369 0.674018 9.89893 0.194018 9.15693 0.0330184C8.42693 -0.124982 7.36393 0.296018 6.69193 1.04002C5.94693 1.86402 5.61793 2.89502 5.73993 4.16902C5.79193 4.71702 5.94393 5.33002 6.19393 6.01302C5.34015 5.8886 4.4743 5.86979 3.61593 5.95702C1.60893 6.16202 0.48193 7.46902 0.645929 9.12102C0.71793 9.83302 0.975931 10.438 1.41493 10.913C1.04593 11.624 0.898932 12.327 0.990931 13.013C1.09693 13.803 1.53693 14.461 2.26893 14.972C2.32593 15.665 2.48493 16.218 2.76693 16.632C2.98913 16.9665 3.27904 17.2506 3.61793 17.466C3.72593 18.15 3.95293 18.685 4.32393 19.061C4.93893 19.687 6.03793 20.06 7.04193 19.992C7.99493 19.928 8.55893 19.812 9.88893 19.392C10.7659 19.115 12.5819 18.655 15.3189 18.015H18.3139H18.3129ZM16.6119 9.18402C16.6122 9.09455 16.5948 9.00591 16.5607 8.92318C16.5267 8.84045 16.4766 8.76525 16.4135 8.70189C16.3503 8.63854 16.2752 8.58827 16.1926 8.55397C16.11 8.51967 16.0214 8.50202 15.9319 8.50202C15.8426 8.50228 15.7543 8.52013 15.6719 8.55454C15.5895 8.58896 15.5146 8.63927 15.4517 8.7026C15.3887 8.76593 15.3389 8.84104 15.3049 8.92364C15.271 9.00624 15.2537 9.09472 15.2539 9.18402V16.862C15.2538 16.9513 15.2713 17.0398 15.3053 17.1223C15.3394 17.2049 15.3893 17.2799 15.4524 17.3431C15.5154 17.4064 15.5903 17.4566 15.6728 17.4909C15.7552 17.5252 15.8436 17.5429 15.9329 17.543C16.0222 17.5429 16.1106 17.5252 16.1931 17.4909C16.2755 17.4566 16.3504 17.4064 16.4135 17.3431C16.4765 17.2799 16.5265 17.2049 16.5606 17.1223C16.5946 17.0398 16.6121 16.9513 16.6119 16.862V9.18402Z" fill="#585C60"/>
</svg>
