<svg width="30" height="27" viewBox="0 0 30 27" fill="none" xmlns="http://www.w3.org/2000/svg">
<path fill-rule="evenodd" clip-rule="evenodd" d="M0 10C0 4.47715 4.47715 0 10 0H20C25.5228 0 30 4.47715 30 10C30 13.2765 28.4243 16.1849 25.9893 18.0088L15 27V20H10C4.47715 20 0 15.5228 0 10ZM11 10C11 11.1046 10.1046 12 9 12C7.89543 12 7 11.1046 7 10C7 8.89543 7.89543 8 9 8C10.1046 8 11 8.89543 11 10ZM15 12C16.1046 12 17 11.1046 17 10C17 8.89543 16.1046 8 15 8C13.8954 8 13 8.89543 13 10C13 11.1046 13.8954 12 15 12ZM23 10C23 11.1046 22.1046 12 21 12C19.8954 12 19 11.1046 19 10C19 8.89543 19.8954 8 21 8C22.1046 8 23 8.89543 23 10Z" fill="#585C60"/>
</svg>
