<svg width="27" height="28" viewBox="0 0 27 28" fill="none" xmlns="http://www.w3.org/2000/svg">
<path fill-rule="evenodd" clip-rule="evenodd" d="M18.549 18.1471H3.45098C3.45098 12.1078 4.31373 6.5 11.2157 6.5C16.7373 6.5 18.549 11.2451 18.549 18.1471ZM8.63103 25.049H0C0 22.2882 1.43791 20.4477 2.15686 19.8725H19.8431C20.5621 20.4477 22 22.2882 22 25.049H13.8003C13.729 26.4147 12.5991 27.5 11.2157 27.5C9.83228 27.5 8.70237 26.4147 8.63103 25.049Z" fill="#8C8C8C"/>
<circle cx="20" cy="7.5" r="7" fill="#CC1016"/>
<path d="M21.1094 8.75195H22.4395V9.34375H21.1094V11.5H20.4062V9.34375H16.3926V8.94531L20.3418 2.96875H21.1094V8.75195ZM17.2539 8.75195H20.4062V3.87695L20.0957 4.41602L17.2539 8.75195Z" fill="white"/>
</svg>
