<svg width="22" height="22" viewBox="0 0 22 22" fill="none" xmlns="http://www.w3.org/2000/svg">
<path d="M9.20361 2C8.01672 2.0006 6.84652 2.26493 5.78709 2.77174C4.72765 3.27854 3.80851 4.0137 3.10356 4.91811C2.39861 5.82252 1.92749 6.87096 1.72809 7.97917C1.52868 9.08738 1.60655 10.2244 1.95542 11.299C2.30429 12.3735 2.91445 13.3555 3.73684 14.1661C4.55924 14.9767 5.57093 15.5932 6.69061 15.9661C7.81029 16.3391 9.00673 16.458 10.1838 16.3134C11.3608 16.1688 12.4856 15.7646 13.4677 15.1334L18.1568 19.5711C18.287 19.7035 18.4441 19.8097 18.6186 19.8833C18.7931 19.957 18.9815 19.9966 19.1725 19.9998C19.3635 20.003 19.5533 19.9697 19.7304 19.9019C19.9075 19.8342 20.0685 19.7333 20.2036 19.6053C20.3386 19.4774 20.4451 19.325 20.5167 19.1572C20.5882 18.9894 20.6234 18.8097 20.62 18.6287C20.6166 18.4478 20.5748 18.2694 20.4971 18.1041C20.4193 17.9388 20.3072 17.79 20.1674 17.6667L15.4822 13.2254C16.2573 12.1449 16.7068 10.8847 16.7824 9.58026C16.858 8.27587 16.5567 6.97665 15.911 5.82228C15.2654 4.66791 14.2997 3.70207 13.1179 3.02861C11.9361 2.35514 10.5828 1.99953 9.20361 2ZM4.46147 9.18656C4.46147 7.99531 4.96109 6.85285 5.85041 6.01052C6.73973 5.16818 7.94592 4.69496 9.20361 4.69496C10.4613 4.69496 11.6675 5.16818 12.5568 6.01052C13.4461 6.85285 13.9458 7.99531 13.9458 9.18656C13.9458 10.3778 13.4461 11.5203 12.5568 12.3626C11.6675 13.2049 10.4613 13.6782 9.20361 13.6782C7.94592 13.6782 6.73973 13.2049 5.85041 12.3626C4.96109 11.5203 4.46147 10.3778 4.46147 9.18656Z" fill="#585C60"/>
</svg>
