<svg width="16" height="16" viewBox="0 0 16 16" fill="none" xmlns="http://www.w3.org/2000/svg">
<path d="M8 0C3.58464 0 0 3.58464 0 8C0 12.4154 3.58464 16 8 16C12.4074 16 15.9858 12.4282 15.9987 8.02368C15.9995 8.01581 16 8.00791 16 8C16 7.9929 15.9997 7.9858 15.999 7.97872C15.9875 3.57312 12.4083 0 8 0ZM8.224 0.4856C8.51134 0.493577 8.79798 0.517883 9.08256 0.5584C9.26496 0.63232 9.43296 0.72048 9.5328 0.80592C9.82176 1.03952 11.2112 1.74352 10.5264 0.96336C10.5162 0.94256 10.5104 0.92592 10.5034 0.90784C13.4267 1.9384 15.52 4.72224 15.52 8C15.52 11.567 13.041 14.5485 9.71088 15.3226C9.90944 15.2158 10.1381 15.1046 10.2734 15.0275C10.9608 14.7155 11.6013 14.3421 12.1734 13.8237C12.5725 13.1488 13.4566 12.9741 13.7606 12.2131C13.9512 11.5291 14.5677 11.0098 14.5866 10.2803C14.259 9.8056 13.249 10.2251 13.0646 9.54368C12.996 8.82768 12.2318 9.14128 11.896 8.80448C11.3928 8.74624 11.7016 7.91456 11.2872 8.2984C10.777 8.05616 10.9032 8.3768 10.3581 8.3888C10.4258 8.14352 9.99648 7.9136 9.90656 8.13808C9.85344 8.1592 8.99232 8.12656 8.90944 8.66848C8.58528 8.68368 8.10144 8.75152 7.78464 8.57312C7.50224 8.17504 8.08176 7.48352 7.26464 7.44944C6.68384 7.5928 6.97504 7.216 7.07664 6.80848C7.3296 6.1568 6.33264 6.6032 6.21408 6.94C5.58912 7.2904 5.19696 6.30176 5.54288 5.83536C5.6328 4.87824 6.69936 5.4672 7.18624 5.12496C7.6968 5.11632 7.91808 5.72656 7.94976 6.06976C8.75744 5.93856 7.5736 4.86336 8.38176 4.62288C9.02576 4.4584 8.68624 3.86848 9.14176 3.51744C9.72224 3.55392 9.14368 3.06288 9.6272 3.01824C9.816 3.16192 10.7122 2.98704 10.3334 2.60784C10.0189 2.89504 9.92192 2.396 9.67872 2.34256C9.99024 2.3472 10.1083 2.48784 10.3374 2.17088C10.261 2.58816 10.7747 2.7584 11.1246 2.656C10.6854 2.07904 10.0587 1.72832 9.42544 1.336C9.2888 0.7568 8.81904 0.63168 8.224 0.4856ZM8.15216 0.75712C8.25776 0.75184 8.37616 0.7744 8.43472 0.83184C7.93536 1.08784 8.17376 1.11376 8.24528 1.54624C8.47168 1.4352 8.24848 1.8464 8.276 1.68432C8.42896 1.45488 7.91168 1.55024 8.1112 1.916C7.88288 1.64288 7.29152 1.67088 7.01344 1.4C7.02368 0.84592 7.92128 1.35744 8.06752 0.98688C7.83632 0.85312 7.97632 0.76608 8.15232 0.75712H8.15216ZM4.13248 1.54912C3.99488 1.75984 3.7088 2.06624 3.88816 2.0016C3.90448 2.12528 3.64656 2.86 3.3288 3.10816C3.04432 3.4632 2.9096 4.31504 3.2 4.51088C3.22304 4.93536 3.27952 5.43296 3.39152 5.81376C3.78112 6.65264 3.81808 5.6464 3.576 5.27296C3.8432 5.6312 4.17408 6.31824 4.21152 6.8744C4.59728 7.19392 5.08016 7.57728 5.60912 7.5528C6.03328 7.75504 6.6416 8.06656 7.08032 8.35536C7.22784 8.78896 7.73152 9.05728 8.14464 9.18464C8.34656 8.6888 8.7144 9.28624 8.6568 9.66C8.47088 10.0098 7.8912 10.4014 8.06656 10.8219C7.69568 11.2552 8.364 11.6005 8.51616 12.0597C8.75728 12.4022 8.91008 12.8638 9.41504 12.9525C10.0965 13.4354 9.32128 14.297 9.06528 14.8538C8.99856 15.0592 8.64848 15.2965 8.57408 15.496C8.38432 15.5102 8.19328 15.52 8 15.52C3.844 15.52 0.48 12.156 0.48 8C0.48 5.25888 1.94384 2.8632 4.13248 1.54912ZM8.54976 5.60528C8.49056 5.60256 8.42992 5.62768 8.36784 5.69344C8.77712 5.66864 8.18064 6.23856 8.65536 6.22656C8.8448 5.64336 8.77664 6.36208 9.13696 6.44944C9.36656 6.67664 9.19248 6.10592 9.17696 6.15504C9.02704 6.14928 8.80528 5.61696 8.54976 5.60528ZM7.95312 6.1744C7.82758 6.17021 7.70384 6.20515 7.59904 6.2744C7.1552 6.528 7.55424 6.51616 7.71104 6.63968C7.99216 6.40176 8.22048 6.6344 8.55872 6.75472C8.56224 7.22528 9.31888 6.60016 9.31744 6.95952C8.90176 7.11808 9.40064 7.25552 9.61568 7.23088C9.70528 7.38688 9.75936 7.17008 9.85936 7.18496C10.1914 7.2224 10.4888 7.00464 9.94592 6.82816C9.50368 6.89472 9.46656 6.62656 9.32352 6.51776C8.94272 6.7856 8.46016 6.18976 7.95312 6.1744ZM11.0102 7.01872C10.9966 7.024 10.988 7.04704 10.9866 7.0984C11.1678 7.37392 11.4784 7.7376 11.289 8.13744C11.6538 8.09728 11.3776 7.35264 11.2744 7.08064C11.2208 7.30496 11.0694 6.99584 11.0104 7.01872H11.0102Z" fill="#585C60"/>
</svg>
